<?xml version="1.0" encoding="UTF-8"?>
<svg version="1.1" xmlns="http://www.w3.org/2000/svg" width="1200" height="1200">
<path d="M0 0 C396 0 792 0 1200 0 C1200 396 1200 792 1200 1200 C804 1200 408 1200 0 1200 C0 804 0 408 0 0 Z " fill="#FEFEFE" transform="translate(0,0)"/>
<path d="M0 0 C198 0 396 0 600 0 C600 198 600 396 600 600 C402 600 204 600 0 600 C0 402 0 204 0 0 Z " fill="#555273" transform="translate(300,254)"/>
<path d="M0 0 C2.63917518 0.00315778 5.27722211 -0.02039448 7.91625977 -0.0456543 C51.62034223 -0.20856112 91.79406775 19.83474304 123.34008789 49.31567383 C121.83933634 54.39146411 118.74164247 57.42263063 115.15258789 61.12817383 C113.96558298 62.37871041 112.77937766 63.63000647 111.59399414 64.88208008 C110.74345459 65.77564209 110.74345459 65.77564209 109.87573242 66.68725586 C107.51302167 69.19270589 105.26181114 71.78753897 103.01196289 74.39379883 C100.98250716 76.72672457 98.91244089 79.02078628 96.84008789 81.31567383 C94.15025358 84.29630103 91.47698425 87.28812616 88.84008789 90.31567383 C85.45671123 94.20029147 82.01144651 98.0265807 78.54711914 101.83911133 C77.11813383 103.44260989 75.71729665 105.07183293 74.35180664 106.72973633 C73.74981445 107.4593457 73.14782227 108.18895508 72.52758789 108.94067383 C72.00551758 109.59293945 71.48344727 110.24520508 70.94555664 110.91723633 C69.34008789 112.31567383 69.34008789 112.31567383 65.34008789 112.31567383 C62.85180664 110.62817383 62.85180664 110.62817383 60.02758789 108.31567383 C43.53749625 95.38141096 26.05112938 90.15738438 5.15258789 90.06567383 C3.99694336 90.04504883 2.84129883 90.02442383 1.65063477 90.00317383 C-9.34218102 89.95379566 -19.09429188 91.94597502 -28.84741211 97.06567383 C-29.86520752 97.58738159 -29.86520752 97.58738159 -30.90356445 98.11962891 C-36.31415469 100.96856802 -41.03582983 104.31213938 -45.65991211 108.31567383 C-46.64991211 109.03754883 -47.63991211 109.75942383 -48.65991211 110.50317383 C-68.8096988 127.64719123 -77.48929546 158.10042415 -79.65991211 183.31567383 C-79.99888128 189.22867396 -79.99969506 195.14488099 -79.97241211 201.06567383 C-79.97125397 201.84982666 -79.97009583 202.63397949 -79.96890259 203.44189453 C-79.93342924 215.61994067 -79.25611504 227.38241251 -76.65991211 239.31567383 C-76.44334961 240.41524414 -76.22678711 241.51481445 -76.00366211 242.64770508 C-72.25758113 259.6611562 -64.18090543 276.2909364 -52.65991211 289.31567383 C-52.14170898 289.92797852 -51.62350586 290.5402832 -51.08959961 291.17114258 C-37.15941598 306.46634421 -15.74705943 313.63331836 4.31274414 314.58911133 C32.25207316 315.36912956 52.21559253 303.14899582 72.34008789 284.31567383 C73.4904787 285.46606464 74.64053496 286.61679117 75.78930664 287.76879883 C76.84925452 288.82607681 77.91463022 289.87793378 78.98461914 290.92504883 C82.60535269 294.48856988 86.0079123 298.16799268 89.32446289 302.01489258 C91.78489019 304.82340358 94.3098199 307.57030954 96.84008789 310.31567383 C99.85949543 313.59409047 102.86211293 316.88148762 105.77758789 320.25317383 C108.88978181 323.84532055 112.10999523 327.33002646 115.34008789 330.81567383 C116.37537622 331.93925005 117.41053522 333.06294547 118.44555664 334.18676758 C120.18227679 336.07110043 121.93252106 337.93552539 123.70336914 339.78833008 C124.66823242 340.82280273 124.66823242 340.82280273 125.65258789 341.87817383 C126.2055957 342.45696289 126.75860352 343.03575195 127.32836914 343.63208008 C128.34008789 345.31567383 128.34008789 345.31567383 128.12255859 347.17456055 C127.14740498 349.84292161 125.82484603 351.23478058 123.83227539 353.25708008 C123.10073242 354.00022461 122.36918945 354.74336914 121.61547852 355.5090332 C120.82334961 356.29084961 120.0312207 357.07266602 119.21508789 357.87817383 C118.39975586 358.68448242 117.58442383 359.49079102 116.74438477 360.3215332 C100.8793417 375.74141528 82.18608375 386.93871674 61.34008789 394.31567383 C59.53604492 394.9750293 59.53604492 394.9750293 57.69555664 395.64770508 C12.19544749 411.51322537 -42.76371741 407.04902598 -85.90307617 386.43261719 C-98.80993467 380.05298628 -110.83338307 372.86556775 -121.65991211 363.31567383 C-122.93801758 362.20192383 -122.93801758 362.20192383 -124.24194336 361.06567383 C-126.74738588 358.84887676 -129.2097943 356.59336109 -131.65991211 354.31567383 C-132.3753418 353.66598633 -133.09077148 353.01629883 -133.82788086 352.34692383 C-170.08078577 318.00901753 -185.47945725 264.61924275 -186.85447693 216.06477356 C-187.61285956 185.29589796 -185.06596801 155.79766265 -175.65991211 126.31567383 C-175.42578613 125.56125 -175.19166016 124.80682617 -174.95043945 124.02954102 C-169.51297279 106.8521818 -160.37743768 89.77187111 -149.65991211 75.31567383 C-148.53842773 73.75333008 -148.53842773 73.75333008 -147.39428711 72.15942383 C-121.89216733 37.56664306 -84.56530058 14.77765286 -43.15991211 4.62817383 C-42.34232422 4.42554932 -41.52473633 4.2229248 -40.68237305 4.01416016 C-27.14476185 0.83406862 -13.84550315 -0.03448921 0 0 Z " fill="#FEFEFE" transform="translate(636.659912109375,351.684326171875)"/>
<path d="M0 0 C3.4375 0.625 3.4375 0.625 5.875 3.125 C6.390625 3.95 6.90625 4.775 7.4375 5.625 C8.736875 4.3875 8.736875 4.3875 10.0625 3.125 C12.48302783 1.1097964 13.31754667 0.64179347 16.5625 0.1875 C21.14330964 0.88457973 21.14330964 0.88457973 23.4375 2.625 C26.53267388 7.58732224 26.84612357 11.43543813 26.73046875 17.0859375 C26.72622391 17.87650543 26.72197906 18.66707336 26.71760559 19.4815979 C26.70091301 21.9880894 26.66327983 24.49375461 26.625 27 C26.60994092 28.70701958 26.59625466 30.41405185 26.58398438 32.12109375 C26.55104056 36.28937725 26.49932493 40.45704889 26.4375 44.625 C21.8175 44.625 17.1975 44.625 12.4375 44.625 C12.4375 34.395 12.4375 24.165 12.4375 13.625 C11.4475 13.955 10.4575 14.285 9.4375 14.625 C9.1075 24.525 8.7775 34.425 8.4375 44.625 C4.8075 44.625 1.1775 44.625 -2.5625 44.625 C-2.5625 34.395 -2.5625 24.165 -2.5625 13.625 C-3.8825 13.625 -5.2025 13.625 -6.5625 13.625 C-6.8925 23.855 -7.2225 34.085 -7.5625 44.625 C-12.1825 44.625 -16.8025 44.625 -21.5625 44.625 C-21.5625 30.435 -21.5625 16.245 -21.5625 1.625 C-17.6025 1.625 -13.6425 1.625 -9.5625 1.625 C-9.2325 2.945 -8.9025 4.265 -8.5625 5.625 C-7.881875 4.8 -7.20125 3.975 -6.5 3.125 C-3.5625 0.625 -3.5625 0.625 0 0 Z " fill="#ABA9BA" transform="translate(885.5625,946.375)"/>
<path d="M0 0 C6.41934789 3.25334298 11.13276264 8.29672542 13.421875 15.1640625 C14.06194479 22.83440705 14.31830766 29.87887555 9.421875 36.1640625 C5.23629387 40.5976046 1.01880719 43.75006582 -5.19140625 44.46484375 C-12.21529005 44.49533818 -18.17998246 44.26671439 -23.5546875 39.359375 C-29.87801801 32.46356189 -31.1146926 26.92848556 -30.94921875 17.61328125 C-30.30568811 11.63183334 -27.99728707 8.30553865 -23.5703125 4.38671875 C-16.52934388 -1.13433598 -8.7523585 -2.83788594 0 0 Z " fill="#ABA9BA" transform="translate(372.578125,947.8359375)"/>
<path d="M0 0 C5.60708536 2.81362736 10.25574929 7.51724786 12.25 13.5 C12.39703064 15.93448818 12.47105339 18.3737477 12.5 20.8125 C12.52578125 22.10800781 12.5515625 23.40351562 12.578125 24.73828125 C12.14406928 29.71442006 10.74427963 32.89219193 7.34765625 36.546875 C6.67605469 37.10890625 6.00445313 37.6709375 5.3125 38.25 C4.64347656 38.82234375 3.97445312 39.3946875 3.28515625 39.984375 C-2.68401141 44.42974362 -8.4858713 44.19513193 -15.75 43.5 C-21.65117702 41.84616695 -25.32769351 38.58456964 -28.75 33.5 C-31.97419148 27.35063481 -32.89266572 21.10378362 -31.2109375 14.328125 C-28.78451576 7.23550762 -24.96706636 2.90809601 -18.30859375 -0.546875 C-12.20162797 -2.8218363 -6.03048205 -2.28707058 0 0 Z " fill="#ABA9BA" transform="translate(672.75,948.5)"/>
<path d="M0 0 C2.89911284 1.45642636 5.70957165 2.97636905 8.484375 4.65625 C8.484375 8.24537412 7.82000946 8.76482029 5.484375 11.34375 C4.9275 11.96636719 4.370625 12.58898437 3.796875 13.23046875 C3.36375 13.70097656 2.930625 14.17148437 2.484375 14.65625 C-2.265625 13.78125 -2.265625 13.78125 -4.515625 12.65625 C-6.22265235 12.58628986 -7.93230503 12.57184846 -9.640625 12.59375 C-10.55070313 12.60277344 -11.46078125 12.61179687 -12.3984375 12.62109375 C-13.44644531 12.63849609 -13.44644531 12.63849609 -14.515625 12.65625 C-14.845625 13.97625 -15.175625 15.29625 -15.515625 16.65625 C-15.00515625 16.87539063 -14.4946875 17.09453125 -13.96875 17.3203125 C-11.47325214 18.40877433 -8.99367331 19.5285988 -6.515625 20.65625 C-5.4946875 21.11515625 -4.47375 21.5740625 -3.421875 22.046875 C7.62382317 27.24163404 7.62382317 27.24163404 10.484375 32.65625 C11.34881026 37.89044518 11.3028545 42.82828079 8.796875 47.59375 C4.96762345 52.66492097 1.57269614 54.95903118 -4.515625 56.65625 C-14.81087244 57.63027781 -22.55107325 56.72960242 -31.078125 50.90625 C-31.7896875 50.2875 -31.7896875 50.2875 -32.515625 49.65625 C-31.0296334 45.06318504 -28.66547818 42.22055755 -25.515625 38.65625 C-24.443125 39.31625 -23.370625 39.97625 -22.265625 40.65625 C-16.83493866 43.4301977 -11.47105554 43.01357583 -5.515625 42.65625 C-5.32955376 40.26133861 -5.32955376 40.26133861 -6.515625 37.65625 C-9.94752892 35.50317342 -13.85847922 34.28373992 -17.63867188 32.87109375 C-24.03581502 30.30805193 -28.3858336 26.9158328 -31.515625 20.65625 C-32.07614459 16.0618271 -31.97942062 12.58384124 -29.890625 8.40625 C-21.91441405 -0.82936268 -11.89283299 -4.54570505 0 0 Z " fill="#ABA9BA" transform="translate(749.515625,935.34375)"/>
<path d="M0 0 C4.95175961 3.59483571 7.27736592 7.0996648 9.5625 12.8125 C9.5625 16.7725 9.5625 20.7325 9.5625 24.8125 C0.3225 24.8125 -8.9175 24.8125 -18.4375 24.8125 C-16.38206702 29.12688936 -16.38206702 29.12688936 -12.4375 30.8125 C-7.07725877 31.33437167 -1.70102895 30.92061136 3.5625 29.8125 C7.5625 36.5625 7.5625 36.5625 7.5625 38.8125 C-0.55526555 43.09103996 -8.35453554 43.95657548 -17.4375 42.8125 C-23.64958152 40.76503975 -27.77726987 37.1364711 -31.4375 31.8125 C-34.50814814 25.40987196 -34.70042501 17.95072514 -32.6328125 11.17578125 C-29.71775237 5.25519362 -25.2830813 1.74051926 -19.4375 -1.1875 C-13.08898429 -3.24854117 -5.81021614 -3.47740891 0 0 Z " fill="#ABA9BA" transform="translate(600.4375,949.1875)"/>
<path d="M0 0 C4.30687813 4.05353235 5.94752244 7.93382725 6.44677734 13.74609375 C6.56762138 18.16612462 6.47456908 22.58044799 6.375 27 C6.35490643 28.55336242 6.3366607 30.1067499 6.3203125 31.66015625 C6.27995947 35.44123561 6.2016461 39.21879235 6.125 43 C1.175 43 -3.775 43 -8.875 43 C-8.93558594 40.91816406 -8.99617187 38.83632813 -9.05859375 36.69140625 C-9.12115407 34.68252498 -9.18374775 32.67364459 -9.24731445 30.66479492 C-9.29071434 29.26510801 -9.33238564 27.86536641 -9.37231445 26.46557617 C-9.42989445 24.45738505 -9.49414 22.44938851 -9.55859375 20.44140625 C-9.59525146 19.23170166 -9.63190918 18.02199707 -9.66967773 16.77563477 C-9.56438266 14.09294544 -9.56438266 14.09294544 -10.875 13 C-14.53844611 12.86431681 -17.38115721 12.83538574 -20.875 14 C-20.875 23.57 -20.875 33.14 -20.875 43 C-25.825 43 -30.775 43 -35.875 43 C-35.875 28.81 -35.875 14.62 -35.875 0 C-31.915 0 -27.955 0 -23.875 0 C-23.215 1.32 -22.555 2.64 -21.875 4 C-21.34132813 3.6390625 -20.80765625 3.278125 -20.2578125 2.90625 C-13.52368799 -1.2880144 -7.64285919 -2.65838581 0 0 Z " fill="#ABA9BA" transform="translate(528.875,948)"/>
<path d="M0 0 C1.9609375 1.38671875 1.9609375 1.38671875 3.9609375 4.38671875 C1.6509375 7.02671875 -0.6590625 9.66671875 -3.0390625 12.38671875 C-3.6784375 12.05671875 -4.3178125 11.72671875 -4.9765625 11.38671875 C-9.07487383 10.04849464 -12.7671881 9.75097701 -17.0390625 10.38671875 C-20.63895975 12.53133839 -22.51350256 14.52598154 -24.0390625 18.38671875 C-24.75865535 25.53592043 -24.78968131 32.13568739 -21.0390625 38.38671875 C-16.80053001 41.21240707 -13.01764079 40.93372815 -8.0390625 40.38671875 C-5.00440548 39.07444441 -5.00440548 39.07444441 -3.0390625 37.38671875 C-1.83700786 38.45387947 -0.65273917 39.54110212 0.5234375 40.63671875 C1.18472656 41.24 1.84601563 41.84328125 2.52734375 42.46484375 C3.9609375 44.38671875 3.9609375 44.38671875 3.81640625 46.48828125 C2.21019027 50.05276056 -0.89169516 51.83755148 -4.32421875 53.48046875 C-11.91468281 56.01426395 -20.61260569 55.08836236 -27.81640625 51.78515625 C-33.59341548 48.1504123 -37.51629029 42.65676665 -40.0390625 36.38671875 C-40.48121878 33.29342365 -40.51568325 30.25775354 -40.4765625 27.13671875 C-40.46826416 26.29206055 -40.45996582 25.44740234 -40.45141602 24.57714844 C-40.22352359 16.15891562 -38.57202388 9.87074326 -32.8515625 3.51171875 C-23.10169088 -5.225984 -11.43543993 -6.16181472 0 0 Z " fill="#ABA9BA" transform="translate(308.0390625,937.61328125)"/>
<path d="M0 0 C0.66 0.33 1.32 0.66 2 1 C1.85851011 2.6045556 1.71164314 4.20863767 1.5625 5.8125 C1.48128906 6.70582031 1.40007812 7.59914063 1.31640625 8.51953125 C1 11 1 11 0 14 C-0.79664063 13.95359375 -1.59328125 13.9071875 -2.4140625 13.859375 C-11.02254334 13.55306278 -11.02254334 13.55306278 -18 18 C-20.19164944 21.28747416 -20.28679386 22.48494825 -20.4140625 26.32421875 C-20.47207031 27.86625977 -20.47207031 27.86625977 -20.53125 29.43945312 C-20.5621875 30.51130859 -20.593125 31.58316406 -20.625 32.6875 C-20.68300781 34.31268555 -20.68300781 34.31268555 -20.7421875 35.97070312 C-20.83650116 38.64685334 -20.91934126 41.32340342 -21 44 C-25.95 44 -30.9 44 -36 44 C-36 29.81 -36 15.62 -36 1 C-32.04 1 -28.08 1 -24 1 C-23.34 3.64 -22.68 6.28 -22 9 C-21.29875 8.071875 -20.5975 7.14375 -19.875 6.1875 C-14.32789807 -0.33034477 -8.15014957 -0.69249637 0 0 Z " fill="#ABA9BA" transform="translate(458,947)"/>
<path d="M0 0 C10.56 0 21.12 0 32 0 C32 14.19 32 28.38 32 43 C27.05 43 22.1 43 17 43 C17 32.77 17 22.54 17 12 C11.39 12 5.78 12 0 12 C0 8.04 0 4.08 0 0 Z " fill="#ABAABA" transform="translate(793,948)"/>
<path d="M0 0 C3.0625 1.5 3.0625 1.5 5 4 C5.81976396 7.88393022 5.57080023 10.93994243 3.6875 14.4375 C1.15460657 16.7827717 -0.97844163 16.99800385 -4.375 17.3125 C-8 17 -8 17 -10.9375 15.5625 C-13.56380079 12.29952023 -13.67645366 10.22924676 -13.40625 6.12890625 C-13 4 -13 4 -11.5625 1.4375 C-7.71363473 -0.72161954 -4.30675944 -0.73567421 0 0 Z " fill="#ABA9BA" transform="translate(821,925)"/>
<path d="M0 0 C3 0.5625 3 0.5625 5.375 2.375 C7.77822483 7.08901793 7.75452067 11.37419807 7 16.5625 C5.4375 19.75 5.4375 19.75 3 21.5625 C-0.5625 22.125 -0.5625 22.125 -4 21.5625 C-6.40920613 19.23694686 -6.96584984 17.80616604 -7.43359375 14.46875 C-7.43488281 13.3446875 -7.43617188 12.220625 -7.4375 11.0625 C-7.45683594 9.9384375 -7.47617187 8.814375 -7.49609375 7.65625 C-6.73413998 2.90453831 -4.69971567 0.88119669 0 0 Z " fill="#FBFBFC" transform="translate(364,958.4375)"/>
<path d="M0 0 C3.1875 0.3125 3.1875 0.3125 5.359375 1.92578125 C7.74562075 5.04115765 7.69188525 6.92423758 7.625 10.8125 C7.62371094 11.9365625 7.62242187 13.060625 7.62109375 14.21875 C7.15336141 17.55608348 6.60298305 18.99185116 4.1875 21.3125 C0.6875 21.8125 0.6875 21.8125 -2.8125 21.3125 C-6.1139806 18.12106875 -6.77005612 14.97038018 -7.0625 10.4375 C-7.01625446 5.4152344 -5.38108101 0.59789789 0 0 Z " fill="#FCFCFC" transform="translate(662.8125,958.6875)"/>
<path d="M0 0 C1.875 1.3125 1.875 1.3125 3 3 C3 3.99 3 4.98 3 6 C-1.29 6 -5.58 6 -10 6 C-8.49599034 -0.01603863 -5.79215728 -0.60334972 0 0 Z " fill="#FBFBFB" transform="translate(593,958)"/>
</svg>
